<?xml version="1.0" encoding="utf-8"?>
<!-- Generator: Adobe Illustrator 23.0.2, SVG Export Plug-In . SVG Version: 6.00 Build 0)  -->
<svg version="1.1" xmlns="http://www.w3.org/2000/svg" xmlns:xlink="http://www.w3.org/1999/xlink" x="0px" y="0px"
	 viewBox="0 0 34 34" style="enable-background:new 0 0 34 34;" xml:space="preserve">
<style type="text/css">
	.st0{fill:#2CC5DD;}
	.st1{fill:#4EB1FE;}
	.st2{enable-background:new    ;}
	.st3{fill:#FFFFFF;}
</style>
<g id="图层_1">
	<g>
		<path class="st0" d="M17,0C7.611,0,0,7.611,0,17c0,5.365,2.491,10.142,6.374,13.258l7.153-23.039h7.703l6.994,22.526
			C31.758,26.63,34,22.082,34,17C34,7.611,26.389,0,17,0z"/>
		<path class="st0" d="M13.311,27.845l-1.356,5.394C13.549,33.733,15.243,34,17,34c1.943,0,3.802-0.342,5.541-0.942l-1.311-5.213
			H13.311z"/>
		<path class="st0" d="M17.307,12.007h-0.144c-0.648,2.808-1.368,5.939-2.052,8.603l-0.576,2.268h5.472l-0.576-2.268
			C18.71,17.946,18.026,14.742,17.307,12.007z"/>
		<path class="st3" d="M13.527,7.219L6.374,30.258c1.64,1.316,3.524,2.342,5.581,2.98l1.356-5.394h7.919l1.311,5.213
			c2.116-0.73,4.039-1.864,5.683-3.313L21.23,7.219H13.527z M14.535,22.877l0.576-2.268c0.684-2.663,1.404-5.795,2.052-8.603h0.144
			c0.72,2.735,1.404,5.939,2.124,8.603l0.576,2.268H14.535z"/>
	</g>
</g>
<g id="图层_2">
</g>
</svg>
