<?xml version="1.0" encoding="utf-8"?>
<!-- Generator: Adobe Illustrator 23.0.2, SVG Export Plug-In . SVG Version: 6.00 Build 0)  -->
<svg version="1.1" xmlns="http://www.w3.org/2000/svg" xmlns:xlink="http://www.w3.org/1999/xlink" x="0px" y="0px"
	 viewBox="0 0 34 34" style="enable-background:new 0 0 34 34;" xml:space="preserve">
<style type="text/css">
	.st0{fill:#2CC5DD;}
	.st1{fill:#4EB1FE;}
	.st2{enable-background:new    ;}
	.st3{fill:#FFFFFF;}
</style>
<g id="图层_1">
	<g>
		<path class="st1" d="M20.242,24.59h-3.204v6.479h3.204c3.096,0,4.68-1.115,4.68-3.419C24.922,25.453,23.374,24.59,20.242,24.59z"
			/>
		<path class="st1" d="M17,0C7.611,0,0,7.611,0,17c0,7.122,4.383,13.212,10.596,15.742V9.219h9.359c5.543,0,9.97,1.476,9.97,6.624
			c0,2.375-1.331,4.967-3.491,5.795v0.145c2.292,0.611,4.104,2.169,4.602,4.804C32.904,23.857,34,20.557,34,17
			C34,7.611,26.389,0,17,0z"/>
		<path class="st1" d="M23.662,16.814c0-1.908-1.26-2.7-3.959-2.7h-2.664v5.723h2.664C22.438,19.838,23.662,18.65,23.662,16.814z"/>
		<path class="st3" d="M26.434,21.782v-0.145c2.16-0.828,3.491-3.419,3.491-5.795c0-5.147-4.427-6.624-9.97-6.624h-9.359v23.523
			C12.573,33.547,14.733,34,17,34c5.832,0,10.974-2.939,14.036-7.414C30.538,23.951,28.726,22.393,26.434,21.782z M17.039,14.115
			h2.664c2.7,0,3.959,0.792,3.959,2.7c0,1.836-1.224,3.023-3.959,3.023h-2.664V14.115z M20.242,31.068h-3.204V24.59h3.204
			c3.132,0,4.68,0.863,4.68,3.06C24.922,29.953,23.338,31.068,20.242,31.068z"/>
	</g>
</g>
<g id="图层_2">
</g>
</svg>
