<?xml version="1.0" encoding="utf-8"?>
<!-- Generator: Adobe Illustrator 23.0.2, SVG Export Plug-In . SVG Version: 6.00 Build 0)  -->
<svg version="1.1" xmlns="http://www.w3.org/2000/svg" xmlns:xlink="http://www.w3.org/1999/xlink" x="0px" y="0px"
	 viewBox="0 0 34 34" style="enable-background:new 0 0 34 34;" xml:space="preserve">
<style type="text/css">
	.st0{fill:#2CC5DD;}
	.st1{fill:#4EB1FE;}
	.st2{enable-background:new    ;}
	.st3{fill:#FFFFFF;}
</style>
<g id="图层_1">
	<g>
		<path class="st1" d="M17,0C7.611,0,0,7.611,0,17c0,6.789,3.989,12.631,9.742,15.355c-1.48-2.187-2.37-5.053-2.37-8.601
			c0-8.927,5.976-14.039,12.779-14.039c3.491,0,6.299,1.62,8.135,3.492l-3.384,4.104c-1.332-1.224-2.735-2.088-4.643-2.088
			c-3.456,0-6.299,3.096-6.299,8.315c0,5.327,2.448,8.423,6.227,8.423c2.124,0,3.852-1.08,5.112-2.448l1.282,1.528
			C31.058,27.979,34,22.834,34,17C34,7.611,26.389,0,17,0z"/>
		<path class="st3" d="M20.186,31.961c-3.779,0-6.227-3.096-6.227-8.423c0-5.22,2.844-8.315,6.299-8.315
			c1.908,0,3.311,0.864,4.643,2.088l3.384-4.104c-1.836-1.872-4.644-3.492-8.135-3.492c-6.803,0-12.779,5.111-12.779,14.039
			c0,3.548,0.89,6.414,2.37,8.601C11.946,33.399,14.4,34,17,34c3.554,0,6.851-1.094,9.58-2.959l-1.282-1.528
			C24.038,30.881,22.31,31.961,20.186,31.961z"/>
	</g>
</g>
<g id="图层_2">
</g>
</svg>
