<?xml version="1.0" encoding="utf-8"?>
<!-- Generator: Adobe Illustrator 23.0.2, SVG Export Plug-In . SVG Version: 6.00 Build 0)  -->
<svg version="1.1" xmlns="http://www.w3.org/2000/svg" xmlns:xlink="http://www.w3.org/1999/xlink" x="0px" y="0px"
	 viewBox="0 0 34 34" style="enable-background:new 0 0 34 34;" xml:space="preserve">
<style type="text/css">
	.st0{fill:#2CC5DD;}
	.st1{fill:#4EB1FE;}
	.st2{enable-background:new    ;}
	.st3{fill:#FFFFFF;}
</style>
<g id="图层_1">
	<g>
		<path class="st1" d="M14.902,16.331h-0.863v16.486h0.863c4.32,0,7.38-1.979,7.38-8.351S19.223,16.331,14.902,16.331z"/>
		<path class="st1" d="M17,0C7.611,0,0,7.611,0,17c0,5.91,3.019,11.112,7.596,14.158V11.219h7.703c8.171,0,13.57,3.924,13.57,13.247
			c0,2.041-0.273,3.822-0.759,5.383C31.712,26.731,34,22.137,34,17C34,7.611,26.389,0,17,0z"/>
		<path class="st3" d="M15.299,11.219H7.596v19.939C10.29,32.951,13.521,34,17,34c4.252,0,8.129-1.572,11.11-4.152
			c0.486-1.56,0.759-3.342,0.759-5.383C28.869,15.143,23.47,11.219,15.299,11.219z M14.902,32.816h-0.863V16.331h0.863
			c4.32,0,7.38,1.764,7.38,8.135S19.223,32.816,14.902,32.816z"/>
	</g>
</g>
<g id="图层_2">
</g>
</svg>
