<?xml version="1.0" encoding="utf-8"?>
<!-- Generator: Adobe Illustrator 23.0.2, SVG Export Plug-In . SVG Version: 6.00 Build 0)  -->
<svg version="1.1" xmlns="http://www.w3.org/2000/svg" xmlns:xlink="http://www.w3.org/1999/xlink" x="0px" y="0px"
	 viewBox="0 0 34 34" style="enable-background:new 0 0 34 34;" xml:space="preserve">
<style type="text/css">
	.st0{fill:#2CC5DD;}
	.st1{fill:#4EB1FE;}
	.st2{enable-background:new    ;}
	.st3{fill:#FFFFFF;}
</style>
<g id="图层_1">
	<g>
		<path class="st1" d="M17,0C7.611,0,0,7.611,0,17c0,4.994,2.167,9.471,5.596,12.581V8.219h16.99v5.328H12.039v4.967h8.963v5.399
			h-8.963v5.688h10.942v3.296C29.415,30.474,34,24.281,34,17C34,7.611,26.389,0,17,0z"/>
		<path class="st3" d="M12.039,29.601v-5.688h8.963v-5.399h-8.963v-4.967h10.547V8.219H5.596v21.362C8.613,32.318,12.605,34,17,34
			c2.108,0,4.118-0.402,5.981-1.103v-3.296H12.039z"/>
	</g>
</g>
<g id="图层_2">
</g>
</svg>
