<?xml version="1.0" encoding="utf-8"?>
<!-- Generator: Adobe Illustrator 23.0.2, SVG Export Plug-In . SVG Version: 6.00 Build 0)  -->
<svg version="1.1" xmlns="http://www.w3.org/2000/svg" xmlns:xlink="http://www.w3.org/1999/xlink" x="0px" y="0px"
	 viewBox="0 0 34 34" style="enable-background:new 0 0 34 34;" xml:space="preserve">
<style type="text/css">
	.st0{fill:#4EB1FE;}
	.st1{fill:#4EB1FE;}
	.st2{enable-background:new    ;}
	.st3{fill:#FFFFFF;}
</style>
<g id="图层_1">
	<g>
		<path class="st1" d="M17,0C7.611,0,0,7.611,0,17c0,6.215,3.345,11.634,8.323,14.6c-1.234-2.08-1.952-4.691-1.952-7.846
			c0-8.927,6.012-14.039,13.175-14.039c3.924,0,6.731,1.656,8.567,3.492l-3.42,4.104c-1.296-1.188-2.699-2.088-4.932-2.088
			c-3.959,0-6.803,3.096-6.803,8.315c0,5.327,2.375,8.423,7.344,8.423c0.971,0,1.979-0.252,2.555-0.685v-4.319H18.61v-5.255h9.971
			v7.718C31.908,26.317,34,21.908,34,17C34,7.611,26.389,0,17,0z"/>
		<path class="st3" d="M18.61,21.702v5.255h4.247v4.319c-0.575,0.433-1.584,0.685-2.555,0.685c-4.969,0-7.344-3.096-7.344-8.423
			c0-5.22,2.844-8.315,6.803-8.315c2.232,0,3.636,0.9,4.932,2.088l3.42-4.104c-1.836-1.836-4.644-3.492-8.567-3.492
			c-7.163,0-13.175,5.111-13.175,14.039c0,3.155,0.718,5.765,1.952,7.846C10.865,33.114,13.826,34,17,34
			c4.481,0,8.544-1.747,11.581-4.579v-7.718H18.61z"/>
	</g>
</g>
<g id="图层_2">
</g>
</svg>
