<?xml version="1.0" encoding="utf-8"?>
<!-- Generator: Adobe Illustrator 23.0.2, SVG Export Plug-In . SVG Version: 6.00 Build 0)  -->
<svg version="1.1" xmlns="http://www.w3.org/2000/svg" xmlns:xlink="http://www.w3.org/1999/xlink" x="0px" y="0px"
	 viewBox="0 0 34 34" style="enable-background:new 0 0 34 34;" xml:space="preserve">
<style type="text/css">
	.st0{fill:#2CC5DD;}
	.st1{fill:#4EB1FE;}
	.st2{enable-background:new    ;}
	.st3{fill:#FFFFFF;}
</style>
<g id="图层_1">
	<g>
		<path class="st1" d="M13.039,27.985v5.532C14.312,33.821,15.634,34,17,34c1.689,0,3.317-0.255,4.857-0.713v-5.301H13.039z"/>
		<path class="st1" d="M6.596,30.424V12.219h6.443v10.187h8.818V12.219h6.371v17.522C31.76,26.626,34,22.08,34,17
			c0-9.389-7.611-17-17-17S0,7.611,0,17C0,22.465,2.589,27.314,6.596,30.424z"/>
		<path class="st3" d="M21.857,12.219v10.187h-8.818V12.219H6.596v18.205c1.875,1.456,4.06,2.523,6.443,3.093v-5.532h8.818v5.301
			c2.389-0.712,4.549-1.939,6.371-3.546V12.219H21.857z"/>
	</g>
</g>
<g id="图层_2">
</g>
</svg>
