<?xml version="1.0" encoding="utf-8"?>
<!-- Generator: Adobe Illustrator 23.0.2, SVG Export Plug-In . SVG Version: 6.00 Build 0)  -->
<svg version="1.1" xmlns="http://www.w3.org/2000/svg" xmlns:xlink="http://www.w3.org/1999/xlink" x="0px" y="0px"
	 viewBox="0 0 34 34" style="enable-background:new 0 0 34 34;" xml:space="preserve">
<style type="text/css">
	.st0{fill:#4EB1FE;}
	.st1{fill:#4EB1FE;}
	.st2{enable-background:new    ;}
	.st3{fill:#FFFFFF;}
</style>
<g id="图层_1">
	<g>
		<path class="st1" d="M28.678,4.667v11.261c0,5.256-2.771,9.575-8.783,9.575c-4.176,0-6.91-1.62-8.854-4.932l4.392-3.275
			c0.936,1.836,2.303,2.664,3.6,2.664c2.088,0,3.203-1.044,3.203-4.536V0.83C20.584,0.296,18.828,0,17,0C7.611,0,0,7.611,0,17
			s7.611,17,17,17s17-7.611,17-17C34,12.139,31.949,7.766,28.678,4.667z"/>
		<path class="st3" d="M19.031,19.961c-1.297,0-2.664-0.828-3.6-2.664l-4.392,3.275c1.944,3.312,4.679,4.932,8.854,4.932
			c6.012,0,8.783-4.319,8.783-9.575V4.667c-1.817-1.721-4.006-3.049-6.443-3.838v14.595C22.234,18.917,21.119,19.961,19.031,19.961z
			"/>
	</g>
</g>
<g id="图层_2">
</g>
</svg>
