<?xml version="1.0" encoding="utf-8"?>
<!-- Generator: Adobe Illustrator 23.0.2, SVG Export Plug-In . SVG Version: 6.00 Build 0)  -->
<svg version="1.1" xmlns="http://www.w3.org/2000/svg" xmlns:xlink="http://www.w3.org/1999/xlink" x="0px" y="0px"
	 viewBox="0 0 34 34" style="enable-background:new 0 0 34 34;" xml:space="preserve">
<style type="text/css">
	.st0{fill:#4EB1FE;}
	.st1{fill:#4EB1FE;}
	.st2{enable-background:new    ;}
	.st3{fill:#FFFFFF;}
</style>
<g id="图层_1">
	<g>
		<path class="st1" d="M17,0C7.611,0,0,7.611,0,17c0,3.936,1.35,7.549,3.596,10.431V10.219h6.443v10.583h0.107l7.596-10.583h7.055
			l-8.1,10.727l6.994,11.682C29.752,30.03,34,24.012,34,17C34,7.611,26.389,0,17,0z"/>
		<path class="st1" d="M10.039,29.98v2.518C12.165,33.455,14.517,34,17,34c0.175,0,0.344-0.021,0.518-0.026l-4.563-7.952
			L10.039,29.98z"/>
		<path class="st3" d="M24.797,10.219h-7.055l-7.596,10.583h-0.107V10.219H3.596v17.212c1.694,2.174,3.9,3.923,6.443,5.068V29.98
			l2.916-3.959l4.563,7.952c2.186-0.066,4.271-0.53,6.174-1.346l-6.994-11.682L24.797,10.219z"/>
	</g>
</g>
<g id="图层_2">
</g>
</svg>
