<?xml version="1.0" encoding="utf-8"?>
<!-- Generator: Adobe Illustrator 23.0.2, SVG Export Plug-In . SVG Version: 6.00 Build 0)  -->
<svg version="1.1" xmlns="http://www.w3.org/2000/svg" xmlns:xlink="http://www.w3.org/1999/xlink" x="0px" y="0px"
	 viewBox="0 0 34 34" style="enable-background:new 0 0 34 34;" xml:space="preserve">
<style type="text/css">
	.st0{fill:#2CC5DD;}
	.st1{fill:#4EB1FE;}
	.st2{enable-background:new    ;}
	.st3{fill:#FFFFFF;}
</style>
<g id="图层_1">
	<g>
		<path class="st1" d="M17,0C7.611,0,0,7.611,0,17c0,4.489,1.753,8.56,4.596,11.599v-15.38h6.947l4.247,11.554
			c0.54,1.548,0.972,3.24,1.476,4.896h0.18c0.541-1.655,0.973-3.348,1.477-4.896l4.104-11.554h6.983v14.715
			C32.496,24.977,34,21.166,34,17C34,7.611,26.389,0,17,0z"/>
		<path class="st1" d="M24.969,21.534h-0.144l-2.231,6.407L20.5,33.635c1.275-0.267,2.489-0.689,3.641-1.224v-1.59
			C24.142,28.157,24.646,24.162,24.969,21.534z"/>
		<path class="st1" d="M9.671,21.534H9.527c0.324,2.628,0.828,6.623,0.828,9.287v1.83c1.146,0.487,2.361,0.838,3.619,1.065
			l-2.145-5.774L9.671,21.534z"/>
		<path class="st3" d="M23.025,13.219l-4.104,11.554c-0.504,1.548-0.936,3.24-1.477,4.896h-0.18
			c-0.504-1.655-0.936-3.348-1.476-4.896l-4.247-11.554H4.596v15.38c1.609,1.72,3.56,3.117,5.76,4.052v-1.83
			c0-2.664-0.504-6.659-0.828-9.287h0.144l2.159,6.407l2.145,5.774C14.958,33.893,15.966,34,17,34c1.2,0,2.37-0.128,3.5-0.365
			l2.093-5.694l2.231-6.407h0.144c-0.323,2.628-0.827,6.623-0.827,9.287v1.59c2.271-1.054,4.274-2.584,5.867-4.478V13.219H23.025z"
			/>
	</g>
</g>
<g id="图层_2">
</g>
</svg>
