<?xml version="1.0" encoding="utf-8"?>
<!-- Generator: Adobe Illustrator 23.0.2, SVG Export Plug-In . SVG Version: 6.00 Build 0)  -->
<svg version="1.1" xmlns="http://www.w3.org/2000/svg" xmlns:xlink="http://www.w3.org/1999/xlink" x="0px" y="0px"
	 viewBox="0 0 34 34" style="enable-background:new 0 0 34 34;" xml:space="preserve">
<style type="text/css">
	.st0{fill:#4EB1FE;}
	.st1{fill:#4EB1FE;}
	.st2{enable-background:new    ;}
	.st3{fill:#FFFFFF;}
</style>
<g id="图层_1">
	<g>
		<path class="st1" d="M17,0C7.611,0,0,7.611,0,17c0,5.465,2.589,10.314,6.596,13.424V10.219h6.551l6.66,12.815l2.627,5.938h0.18
			c-0.359-2.844-0.863-6.694-0.863-9.898v-8.855h6.119v19.848C31.614,26.949,34,22.254,34,17C34,7.611,26.389,0,17,0z"/>
		<path class="st1" d="M12.066,18.21h-0.18c0.288,2.988,0.828,6.659,0.828,9.899v5.324C14.086,33.791,15.517,34,17,34
			c0.908,0,1.793-0.092,2.663-0.229l-4.967-9.694L12.066,18.21z"/>
		<path class="st3" d="M21.75,10.219v8.855c0,3.204,0.504,7.055,0.863,9.898h-0.18l-2.627-5.938l-6.66-12.815H6.596v20.205
			c1.79,1.389,3.862,2.422,6.119,3.01v-5.324c0-3.24-0.54-6.911-0.828-9.899h0.18l2.629,5.867l4.967,9.694
			c3.089-0.487,5.907-1.789,8.206-3.704V10.219H21.75z"/>
	</g>
</g>
<g id="图层_2">
</g>
</svg>
