<?xml version="1.0" encoding="utf-8"?>
<!-- Generator: Adobe Illustrator 23.0.2, SVG Export Plug-In . SVG Version: 6.00 Build 0)  -->
<svg version="1.1" xmlns="http://www.w3.org/2000/svg" xmlns:xlink="http://www.w3.org/1999/xlink" x="0px" y="0px"
	 viewBox="0 0 34 34" style="enable-background:new 0 0 34 34;" xml:space="preserve">
<style type="text/css">
	.st0{fill:#4EB1FE;}
	.st1{fill:#4EB1FE;}
	.st2{enable-background:new    ;}
	.st3{fill:#FFFFFF;}
</style>
<g id="图层_1">
	<g>
		<path class="st1" d="M20.442,16.647c-1.907,0-3.419,1.512-3.419,8.819c0,5.036,0.711,7.43,1.773,8.437
			c1.383-0.145,2.709-0.472,3.973-0.929c0.692-1.316,1.129-3.62,1.129-7.508C23.898,18.159,22.351,16.647,20.442,16.647z"/>
		<path class="st1" d="M17,0C7.611,0,0,7.611,0,17c0,7.731,5.165,14.245,12.229,16.309c-0.804-2.1-1.253-4.711-1.253-7.843
			c0-9.215,3.815-13.75,9.467-13.75s9.503,4.607,9.503,13.75c0,0.943-0.05,1.829-0.129,2.68C32.415,25.16,34,21.269,34,17
			C34,7.611,26.389,0,17,0z"/>
		<path class="st3" d="M20.442,11.715c-5.651,0-9.467,4.536-9.467,13.75c0,3.132,0.45,5.743,1.253,7.843
			C13.744,33.751,15.342,34,17,34c0.607,0,1.206-0.035,1.797-0.097c-1.062-1.008-1.773-3.401-1.773-8.437
			c0-7.307,1.512-8.819,3.419-8.819c1.908,0,3.456,1.512,3.456,8.819c0,3.889-0.437,6.192-1.129,7.508
			c2.749-0.993,5.165-2.667,7.047-4.829c0.079-0.851,0.129-1.736,0.129-2.68C29.945,16.323,26.094,11.715,20.442,11.715z"/>
	</g>
</g>
<g id="图层_2">
</g>
</svg>
