<?xml version="1.0" encoding="utf-8"?>
<!-- Generator: Adobe Illustrator 23.0.2, SVG Export Plug-In . SVG Version: 6.00 Build 0)  -->
<svg version="1.1" xmlns="http://www.w3.org/2000/svg" xmlns:xlink="http://www.w3.org/1999/xlink" x="0px" y="0px"
	 viewBox="0 0 34 34" style="enable-background:new 0 0 34 34;" xml:space="preserve">
<style type="text/css">
	.st0{fill:#2CC5DD;}
	.st1{fill:#4EB1FE;}
	.st2{enable-background:new    ;}
	.st3{fill:#FFFFFF;}
</style>
<g id="图层_1">
	<g>
		<path class="st1" d="M20.49,18.93c0-2.7-1.729-3.635-4.824-3.635h-2.627v7.739h2.808C18.979,23.034,20.49,21.558,20.49,18.93z"/>
		<path class="st1" d="M6.596,30.424V10.219h9.395c5.903,0,10.763,2.088,10.763,8.711c0,6.372-4.932,9.179-10.583,9.179h-3.131
			v5.408C14.312,33.821,15.634,34,17,34c9.389,0,17-7.611,17-17S26.389,0,17,0S0,7.611,0,17C0,22.465,2.589,27.314,6.596,30.424z"/>
		<path class="st3" d="M16.17,28.109c5.651,0,10.583-2.808,10.583-9.179c0-6.623-4.859-8.711-10.763-8.711H6.596v20.205
			c1.875,1.456,4.06,2.523,6.443,3.093v-5.408H16.17z M13.039,15.295h2.627c3.096,0,4.824,0.936,4.824,3.635
			c0,2.627-1.512,4.104-4.644,4.104h-2.808V15.295z"/>
	</g>
</g>
<g id="图层_2">
</g>
</svg>
