<?xml version="1.0" encoding="utf-8"?>
<!-- Generator: Adobe Illustrator 23.0.2, SVG Export Plug-In . SVG Version: 6.00 Build 0)  -->
<svg version="1.1" xmlns="http://www.w3.org/2000/svg" xmlns:xlink="http://www.w3.org/1999/xlink" x="0px" y="0px"
	 viewBox="0 0 34 34" style="enable-background:new 0 0 34 34;" xml:space="preserve">
<style type="text/css">
	.st0{fill:#4EB1FE;}
	.st1{fill:#4EB1FE;}
	.st2{enable-background:new    ;}
	.st3{fill:#FFFFFF;}
</style>
<g id="图层_1">
	<g>
		<path class="st1" d="M12.646,17.249c3.527,0,5.723-3.204,5.723-8.783c0-4.648-1.769-7.581-4.677-8.138
			C11.88,0.685,10.176,1.336,8.621,2.22C7.554,3.635,6.959,5.757,6.959,8.466C6.959,14.045,9.119,17.249,12.646,17.249z"/>
		<path class="st1" d="M23.488,1.289c0.924,1.986,1.433,4.39,1.433,7.177c0,7.127-3.275,11.95-8.423,13.498
			c1.224,1.836,3.635,2.52,5.795,2.52c1.152,0,2.195-0.216,3.023-0.504l1.116,4.68c-1.008,0.54-2.735,0.899-4.859,0.899
			c-5.831,0-9.899-3.06-11.843-7.343c-4.694-1.04-8.009-4.586-9.026-10.04C0.252,13.706,0,15.323,0,17c0,9.389,7.611,17,17,17
			s17-7.611,17-17C34,9.91,29.657,3.839,23.488,1.289z"/>
		<path class="st3" d="M9.73,22.216c1.943,4.283,6.012,7.343,11.843,7.343c2.124,0,3.852-0.359,4.859-0.899l-1.116-4.68
			c-0.828,0.288-1.871,0.504-3.023,0.504c-2.16,0-4.571-0.684-5.795-2.52c5.147-1.548,8.423-6.371,8.423-13.498
			c0-2.788-0.509-5.191-1.433-7.177C21.488,0.462,19.299,0,17,0c-1.133,0-2.238,0.116-3.308,0.327
			c2.908,0.558,4.677,3.49,4.677,8.138c0,5.579-2.195,8.783-5.723,8.783s-5.688-3.204-5.688-8.783c0-2.709,0.595-4.831,1.662-6.246
			c-3.783,2.15-6.658,5.702-7.916,9.956C1.722,17.63,5.036,21.176,9.73,22.216z"/>
	</g>
</g>
<g id="图层_2">
</g>
</svg>
