<?xml version="1.0" encoding="utf-8"?>
<!-- Generator: Adobe Illustrator 23.0.2, SVG Export Plug-In . SVG Version: 6.00 Build 0)  -->
<svg version="1.1" xmlns="http://www.w3.org/2000/svg" xmlns:xlink="http://www.w3.org/1999/xlink" x="0px" y="0px"
	 viewBox="0 0 34 34" style="enable-background:new 0 0 34 34;" xml:space="preserve">
<style type="text/css">
	.st0{fill:#2CC5DD;}
	.st1{fill:#4EB1FE;}
	.st2{enable-background:new    ;}
	.st3{fill:#FFFFFF;}
</style>
<g id="图层_1">
	<path class="st1" d="M14.039,26.569v7.156C15.002,33.895,15.988,34,17,34c1.305,0,2.57-0.161,3.79-0.439l-3.655-6.992H14.039z"/>
	<g>
		<path class="st1" d="M16.918,14.295h-2.879v7.199h2.879c3.061,0,4.68-1.332,4.68-3.852C21.598,15.123,19.979,14.295,16.918,14.295
			z"/>
		<path class="st1" d="M17,0C7.611,0,0,7.611,0,17c0,5.91,3.019,11.112,7.596,14.158V9.219h9.826c5.724,0,10.476,1.944,10.476,8.423
			c0,3.923-1.836,6.444-4.607,7.739l3.216,5.715C31.027,28.041,34,22.868,34,17C34,7.611,26.389,0,17,0z"/>
		<path class="st3" d="M27.897,17.642c0-6.479-4.752-8.423-10.476-8.423H7.596v21.939c1.91,1.271,4.095,2.155,6.443,2.568v-7.156
			h3.096l3.655,6.992c2.073-0.473,4.007-1.311,5.715-2.465l-3.216-5.715C26.062,24.086,27.897,21.565,27.897,17.642z M16.918,21.494
			h-2.879v-7.199h2.879c3.061,0,4.68,0.828,4.68,3.347C21.598,20.162,19.979,21.494,16.918,21.494z"/>
	</g>
</g>
<g id="图层_2">
</g>
</svg>
