<?xml version="1.0" encoding="utf-8"?>
<!-- Generator: Adobe Illustrator 23.0.2, SVG Export Plug-In . SVG Version: 6.00 Build 0)  -->
<svg version="1.1" xmlns="http://www.w3.org/2000/svg" xmlns:xlink="http://www.w3.org/1999/xlink" x="0px" y="0px"
	 viewBox="0 0 34 34" style="enable-background:new 0 0 34 34;" xml:space="preserve">
<style type="text/css">
	.st0{fill:#2CC5DD;}
	.st1{fill:#4EB1FE;}
	.st2{enable-background:new    ;}
	.st3{fill:#FFFFFF;}
</style>
<g id="图层_1">
	<g>
		<path class="st1" d="M17,0C7.611,0,0,7.611,0,17c0,4.207,1.536,8.049,4.067,11.018l1.472-1.793
			c1.908,1.62,4.392,2.736,6.516,2.736c2.375,0,3.491-0.9,3.491-2.34c0-1.548-1.476-2.052-3.779-3.023l-3.419-1.44
			c-2.809-1.115-5.436-3.455-5.436-7.343c0-4.5,4.031-8.099,9.719-8.099c3.096,0,6.371,1.188,8.711,3.528l-3.204,4.031
			c-1.764-1.332-3.419-2.052-5.507-2.052c-1.98,0-3.204,0.792-3.204,2.232c0,1.476,1.692,2.052,4.067,2.988l3.348,1.331
			c3.312,1.332,5.291,3.564,5.291,7.344c0,3.462-2.261,6.591-6.297,7.824C16.222,33.967,16.607,34,17,34c9.389,0,17-7.611,17-17
			S26.389,0,17,0z"/>
		<path class="st3" d="M22.133,26.117c0-3.779-1.979-6.012-5.291-7.344l-3.348-1.331c-2.375-0.936-4.067-1.512-4.067-2.988
			c0-1.44,1.224-2.232,3.204-2.232c2.088,0,3.743,0.72,5.507,2.052l3.204-4.031c-2.34-2.34-5.615-3.528-8.711-3.528
			c-5.688,0-9.719,3.6-9.719,8.099c0,3.888,2.627,6.228,5.436,7.343l3.419,1.44c2.304,0.972,3.779,1.476,3.779,3.023
			c0,1.439-1.116,2.34-3.491,2.34c-2.124,0-4.607-1.116-6.516-2.736l-1.472,1.793c2.882,3.379,7.061,5.604,11.769,5.924
			C19.872,32.708,22.133,29.579,22.133,26.117z"/>
	</g>
</g>
<g id="图层_2">
</g>
</svg>
