<?xml version="1.0" encoding="utf-8"?>
<!-- Generator: Adobe Illustrator 23.0.2, SVG Export Plug-In . SVG Version: 6.00 Build 0)  -->
<svg version="1.1" xmlns="http://www.w3.org/2000/svg" xmlns:xlink="http://www.w3.org/1999/xlink" x="0px" y="0px"
	 viewBox="0 0 34 34" style="enable-background:new 0 0 34 34;" xml:space="preserve">
<style type="text/css">
	.st0{fill:#2CC5DD;}
	.st1{fill:#4EB1FE;}
	.st2{enable-background:new    ;}
	.st3{fill:#FFFFFF;}
</style>
<g id="图层_1">
	<g>
		<path class="st1" d="M17,0C7.611,0,0,7.611,0,17c0,5.656,2.773,10.652,7.022,13.743c-0.373-1.54-0.571-3.308-0.571-5.341V11.219
			h6.408v14.867c0,5.075,1.512,6.875,4.463,6.875c2.916,0,4.535-1.8,4.535-6.875V11.219h6.191v14.182
			c0,1.831-0.155,3.447-0.45,4.878C31.496,27.164,34,22.378,34,17C34,7.611,26.389,0,17,0z"/>
		<path class="st3" d="M28.049,11.219h-6.191v14.867c0,5.075-1.619,6.875-4.535,6.875c-2.951,0-4.463-1.8-4.463-6.875V11.219H6.451
			v14.182c0,2.033,0.198,3.801,0.571,5.341C9.826,32.783,13.267,34,17,34c4.011,0,7.691-1.398,10.598-3.721
			c0.295-1.43,0.45-3.047,0.45-4.878V11.219z"/>
	</g>
</g>
<g id="图层_2">
</g>
</svg>
