<?xml version="1.0" encoding="utf-8"?>
<!-- Generator: Adobe Illustrator 23.0.2, SVG Export Plug-In . SVG Version: 6.00 Build 0)  -->
<svg version="1.1" xmlns="http://www.w3.org/2000/svg" xmlns:xlink="http://www.w3.org/1999/xlink" x="0px" y="0px"
	 viewBox="0 0 34 34" style="enable-background:new 0 0 34 34;" xml:space="preserve">
<style type="text/css">
	.st0{fill:#4EB1FE;}
	.st1{fill:#4EB1FE;}
	.st2{enable-background:new    ;}
	.st3{fill:#FFFFFF;}
</style>
<g id="图层_1">
	<g>
		<path class="st1" d="M17,0C7.611,0,0,7.611,0,17c0,7.796,5.254,14.351,12.41,16.355L5.176,9.219h6.803l3.061,12.203
			c0.791,2.88,1.295,5.651,2.088,8.566h0.18c0.756-2.915,1.332-5.687,2.088-8.566l3.023-12.203h6.551l-7.257,24.105
			C28.806,31.279,34,24.752,34,17C34,7.611,26.389,0,17,0z"/>
		<path class="st3" d="M22.418,9.219l-3.023,12.203c-0.756,2.88-1.332,5.651-2.088,8.566h-0.18
			c-0.793-2.915-1.297-5.687-2.088-8.566L11.979,9.219H5.176l7.235,24.136C13.872,33.765,15.407,34,17,34
			c1.637,0,3.214-0.244,4.712-0.676l7.257-24.105H22.418z"/>
	</g>
</g>
<g id="图层_2">
</g>
</svg>
