<?xml version="1.0" encoding="utf-8"?>
<!-- Generator: Adobe Illustrator 23.0.2, SVG Export Plug-In . SVG Version: 6.00 Build 0)  -->
<svg version="1.1" xmlns="http://www.w3.org/2000/svg" xmlns:xlink="http://www.w3.org/1999/xlink" x="0px" y="0px"
	 viewBox="0 0 34 34" style="enable-background:new 0 0 34 34;" xml:space="preserve">
<style type="text/css">
	.st0{fill:#2CC5DD;}
	.st1{fill:#4EB1FE;}
	.st2{enable-background:new    ;}
	.st3{fill:#FFFFFF;}
</style>
<g id="图层_1">
	<g>
		<path class="st1" d="M17,0C7.611,0,0,7.611,0,17c0,3.141,0.867,6.074,2.353,8.599l-1.349-7.38h6.588l1.691,12.203l0.232,1.824
			c0.666,0.327,1.352,0.616,2.064,0.856c0.17-0.897,0.34-1.8,0.511-2.68l2.736-12.203h5.399l2.808,12.203
			c0.148,0.75,0.284,1.531,0.425,2.301c0.753-0.31,1.472-0.68,2.166-1.09c0.048-0.401,0.098-0.811,0.145-1.21l1.729-12.203h6.119
			l-0.921,5.314C33.533,21.521,34,19.316,34,17C34,7.611,26.389,0,17,0z"/>
		<path class="st1" d="M17.418,27.11h-0.18c-0.324,2.016-0.648,4.176-1.045,6.228l-0.123,0.615C16.38,33.97,16.686,34,17,34
			c0.534,0,1.061-0.032,1.582-0.08l-0.12-0.582C18.03,31.286,17.67,29.126,17.418,27.11z"/>
		<path class="st3" d="M20.226,18.219h-5.399L12.09,30.422c-0.171,0.88-0.341,1.783-0.511,2.68c1.422,0.479,2.928,0.766,4.491,0.851
			l0.123-0.615c0.396-2.052,0.721-4.212,1.045-6.228h0.18c0.252,2.016,0.612,4.176,1.044,6.228l0.12,0.582
			c1.712-0.158,3.349-0.57,4.875-1.198c-0.14-0.769-0.276-1.55-0.425-2.301L20.226,18.219z"/>
		<path class="st3" d="M7.592,18.219H1.004l1.349,7.38c1.682,2.859,4.172,5.176,7.162,6.647l-0.232-1.824L7.592,18.219z"/>
	</g>
	<path class="st3" d="M27.497,18.219l-1.729,12.203c-0.047,0.399-0.097,0.809-0.145,1.21c3.148-1.86,5.651-4.692,7.071-8.099
		l0.921-5.314H27.497z"/>
</g>
<g id="图层_2">
</g>
</svg>
