<?xml version="1.0" encoding="utf-8"?>
<!-- Generator: Adobe Illustrator 23.0.2, SVG Export Plug-In . SVG Version: 6.00 Build 0)  -->
<svg version="1.1" xmlns="http://www.w3.org/2000/svg" xmlns:xlink="http://www.w3.org/1999/xlink" x="0px" y="0px"
	 viewBox="0 0 34 34" style="enable-background:new 0 0 34 34;" xml:space="preserve">
<style type="text/css">
	.st0{fill:#4EB1FE;}
	.st1{fill:#4EB1FE;}
	.st2{enable-background:new    ;}
	.st3{fill:#FFFFFF;}
</style>
<g id="图层_1">
	<g>
		<path class="st1" d="M26.07,25.78c-0.648-1.403-1.26-2.808-1.98-4.463h-0.143c-0.648,1.655-1.225,3.06-1.836,4.463L19.807,31
			h-6.875l7.379-13.786L13.363,4.219h7.164l2.159,4.788c0.576,1.26,1.188,2.664,1.944,4.392h0.144
			c0.612-1.728,1.188-3.132,1.728-4.392l1.873-4.615C25.361,1.671,21.381,0,17,0C7.611,0,0,7.611,0,17s7.611,17,17,17
			c4.217,0,8.067-1.544,11.038-4.086L26.07,25.78z"/>
		<path class="st1" d="M32.203,24.573C33.343,22.291,34,19.725,34,17c0-2.592-0.597-5.039-1.635-7.238l-4.027,7.74L32.203,24.573z"
			/>
		<path class="st3" d="M24.774,13.398h-0.144c-0.756-1.728-1.368-3.132-1.944-4.392l-2.159-4.788h-7.164l6.947,12.995L12.932,31
			h6.875l2.305-5.22c0.611-1.403,1.188-2.808,1.836-4.463h0.143c0.721,1.655,1.332,3.06,1.98,4.463l1.968,4.134
			c1.724-1.475,3.142-3.291,4.166-5.341l-3.866-7.071l4.027-7.74c-0.967-2.049-2.328-3.869-3.99-5.37l-1.873,4.615
			C25.963,10.267,25.387,11.67,24.774,13.398z"/>
	</g>
</g>
<g id="图层_2">
</g>
</svg>
