<?xml version="1.0" encoding="utf-8"?>
<!-- Generator: Adobe Illustrator 23.0.2, SVG Export Plug-In . SVG Version: 6.00 Build 0)  -->
<svg version="1.1" xmlns="http://www.w3.org/2000/svg" xmlns:xlink="http://www.w3.org/1999/xlink" x="0px" y="0px"
	 viewBox="0 0 34 34" style="enable-background:new 0 0 34 34;" xml:space="preserve">
<style type="text/css">
	.st0{fill:#2CC5DD;}
	.st1{fill:#4EB1FE;}
	.st2{enable-background:new    ;}
	.st3{fill:#FFFFFF;}
</style>
<g id="图层_1">
	<g>
		<path class="st1" d="M0.195,14.556C0.08,15.356,0,16.168,0,17c0,5.305,2.432,10.04,6.239,13.158v-2.624L0.195,14.556z"/>
		<path class="st1" d="M17,0C10.023,0,4.034,4.207,1.415,10.219h3.601l2.231,5.939c0.72,2.016,1.403,3.887,2.159,5.975h0.145
			c0.756-2.088,1.476-3.959,2.231-5.975l2.231-5.939h6.731l-8.099,17.314v5.883C14.038,33.784,15.492,34,17,34
			c9.389,0,17-7.611,17-17S26.389,0,17,0z"/>
		<path class="st3" d="M20.745,10.219h-6.731l-2.231,5.939c-0.756,2.016-1.476,3.887-2.231,5.975H9.406
			c-0.756-2.088-1.439-3.959-2.159-5.975l-2.231-5.939H1.415c-0.593,1.361-1,2.818-1.219,4.337l6.044,12.977v2.624
			c1.849,1.514,4.029,2.629,6.407,3.259v-5.883L20.745,10.219z"/>
	</g>
</g>
<g id="图层_2">
</g>
</svg>
