<?xml version="1.0" encoding="utf-8"?>
<!-- Generator: Adobe Illustrator 23.0.2, SVG Export Plug-In . SVG Version: 6.00 Build 0)  -->
<svg version="1.1" xmlns="http://www.w3.org/2000/svg" xmlns:xlink="http://www.w3.org/1999/xlink" x="0px" y="0px"
	 viewBox="0 0 34 34" style="enable-background:new 0 0 34 34;" xml:space="preserve">
<style type="text/css">
	.st0{fill:#4EB1FE;}
	.st1{fill:#4EB1FE;}
	.st2{enable-background:new    ;}
	.st3{fill:#FFFFFF;}
</style>
<g id="图层_1">
	<g>
		<path class="st1" d="M17,0c-2.227,0-4.349,0.44-6.298,1.219h8.675v3.852L7.822,22.601h11.663V28H4.051
			C7.17,31.667,11.809,34,17,34c9.389,0,17-7.611,17-17S26.389,0,17,0z"/>
		<path class="st1" d="M3.612,6.547C1.357,9.432,0,13.054,0,17c0,1.941,0.341,3.799,0.941,5.537l10.518-15.99H3.612z"/>
		<path class="st3" d="M19.485,22.601H7.822l11.555-17.53V1.219h-8.675C7.888,2.344,5.451,4.196,3.612,6.547h7.847L0.941,22.537
			c0.697,2.02,1.755,3.869,3.111,5.463h15.434V22.601z"/>
	</g>
</g>
<g id="图层_2">
</g>
</svg>
